<svg xmlns="http://www.w3.org/2000/svg" xmlns:xlink="http://www.w3.org/1999/xlink" width="166" height="58.43" viewBox="0 0 166 58.43"><defs><style>.a{fill:url(#a);}.b{fill:#222;}.c{fill:#fdc03a;}</style><linearGradient id="a" x1="48.07" y1="29.12" x2="22.12" y2="29.12" gradientUnits="userSpaceOnUse"><stop offset="0" stop-color="#fff"/><stop offset="1" stop-color="#a1a3a5"/></linearGradient></defs><title>keller-logo</title><path class="a" d="M38.32,20.92v16.4l-5.83,5.83a4.78,4.78,0,0,1-6.76,0L15.08,32.5a4.78,4.78,0,0,1,0-6.76L25.73,15.08a4.78,4.78,0,0,1,6.76,0Z"/><path class="b" d="M35.73,13.59H47.64L37.54,3.49a11.92,11.92,0,0,0-16.86,0L3.49,20.69a11.93,11.93,0,0,0,0,16.86l6-6a3.5,3.5,0,0,1,0-4.95l17.2-17.2a3.5,3.5,0,0,1,4.95,0Z"/><path class="c" d="M31,49.25a3.5,3.5,0,0,1-4.37-.46l-16.08-16-5.93,6,16.06,16a11.92,11.92,0,0,0,16.86,0L43,49.25Z"/><path class="b" d="M56.67,19.8a4.33,4.33,0,0,0,.69-.87,1.57,1.57,0,0,0,.24-.77,1,1,0,0,0-.35-.79,2.6,2.6,0,0,0-1.13-.44l-.63-.1q-1.28-.15-1.28-1a.84.84,0,0,1,.37-.72,1.62,1.62,0,0,1,1-.27q.2,0,2,.18t3.44.18q1.16,0,3.18-.13T67.06,15a2.84,2.84,0,0,1,1.21.18.68.68,0,0,1,.33.65q0,.93-2,1.23a16,16,0,0,0-1.59.3,11.37,11.37,0,0,0-3.68,1.84,26.28,26.28,0,0,0-4,3.53L54.2,26.08a3.49,3.49,0,0,0-.3.43.63.63,0,0,0-.1.3,1,1,0,0,0,.05.33,1.23,1.23,0,0,0,.15.3L65.44,42.6l.3.4a5.61,5.61,0,0,0,2.85,2.29l.11,0h.16l.1,0q1.44.33,1.44,1.1a.71.71,0,0,1-.28.64,2,2,0,0,1-1.06.19q-.35,0-2.63-.18t-4.17-.18a64.39,64.39,0,0,0-6.68.34l-.71.07a1.16,1.16,0,0,1-.83-.29,1,1,0,0,1-.3-.74.87.87,0,0,1,.25-.67,1.4,1.4,0,0,1,.78-.31l.4,0q1.13-.17,1.13-.78a3.37,3.37,0,0,0-.63-1.46q-.63-1-2.12-2.92L48,32.87a4.49,4.49,0,0,0-.38-.45c-.1-.1-.17-.15-.22-.15a.49.49,0,0,0-.36.18.57.57,0,0,0-.16.4v10a2.81,2.81,0,0,0,.42,1.74,2.72,2.72,0,0,0,1.73.73l.17,0q1.2.18,1.23.91a1.31,1.31,0,0,1-.26.88,1,1,0,0,1-.77.3l-.53-.05a51.33,51.33,0,0,0-6.23-.36,58,58,0,0,0-6.45.36l-.73.05a1.33,1.33,0,0,1-.92-.3,1.07,1.07,0,0,1-.34-.84q0-.76,1.44-1l.08,0,.15,0H36a3,3,0,0,0,1.82-.73,2.65,2.65,0,0,0,.46-1.74V19.5a2.65,2.65,0,0,0-.46-1.74A3,3,0,0,0,36,17H36l-.06,0a3.72,3.72,0,0,1-1.43-.37.78.78,0,0,1-.29-.67,1,1,0,0,1,.34-.8,1.36,1.36,0,0,1,.92-.29l.73.05q3.24.31,6.45.3t6.45-.3l.75-.05a1.31,1.31,0,0,1,.9.29,1.08,1.08,0,0,1,.33.85q0,.76-1.56,1l-.07,0h0a3.6,3.6,0,0,0-2.05.74,2.51,2.51,0,0,0-.48,1.72v9.28a1.23,1.23,0,0,0,.07.49.24.24,0,0,0,.22.16.4.4,0,0,0,.22-.09,2.36,2.36,0,0,0,.3-.26Z"/><path class="b" d="M75.67,34.2v1.34a9.16,9.16,0,0,0,2.4,6.57,8.55,8.55,0,0,0,10.64,1.21A16.07,16.07,0,0,1,91,42a1,1,0,0,1,.69.25.84.84,0,0,1,.26.63,2.2,2.2,0,0,1-.77,1.28,12.56,12.56,0,0,1-2.1,1.68A15.71,15.71,0,0,1,85,47.72a16.13,16.13,0,0,1-4.46.58,13.47,13.47,0,0,1-9.63-3.5,11.8,11.8,0,0,1-3.72-9,11.39,11.39,0,0,1,3.86-9q3.86-3.41,10.14-3.41A12.2,12.2,0,0,1,89,25.82a7.25,7.25,0,0,1,3,5.91,1.33,1.33,0,0,1-.52,1.18,3.36,3.36,0,0,1-1.8.35h-13a1.08,1.08,0,0,0-.75.21A1,1,0,0,0,75.67,34.2Zm.48-4.34-.15.88v0a.33.33,0,0,0,.2.29,1.12,1.12,0,0,0,.55.11h3.33a8.46,8.46,0,0,0,3.73-.59,2,2,0,0,0,1.1-1.93,3.18,3.18,0,0,0-1-2.44,3.78,3.78,0,0,0-2.67-1,4.87,4.87,0,0,0-3.37,1.25A5.34,5.34,0,0,0,76.15,29.86Z"/><path class="b" d="M95.85,19a3.51,3.51,0,0,0-.3-1.62,2.2,2.2,0,0,0-1-.92,5.17,5.17,0,0,0-1-.28q-1.21-.25-1.21-1,0-.93,2.57-1.46l.2,0,1.24-.19.33,0a24.71,24.71,0,0,0,4.06-1.21,16.42,16.42,0,0,1,2.29-.81.9.9,0,0,1,.74.3,1.69,1.69,0,0,1,.24,1q0,.43-.06,1.38c0,.64-.06,1.14-.06,1.51V42.41a4.43,4.43,0,0,0,.29,1.92,2.06,2.06,0,0,0,1.13.87,1.82,1.82,0,0,0,.48.15,4.76,4.76,0,0,0,.79,0,2.51,2.51,0,0,1,1.25.3,1.09,1.09,0,0,1,0,1.42,1.11,1.11,0,0,1-.78.24l-.76-.05a57.93,57.93,0,0,0-5.85-.3q-3.58,0-7,.3l-.68.05a.77.77,0,0,1-.57-.29.92.92,0,0,1-.27-.64.89.89,0,0,1,.28-.73,2.5,2.5,0,0,1,1.23-.3,3.51,3.51,0,0,0,.59,0,2.76,2.76,0,0,0,.54-.15,1.9,1.9,0,0,0,1.05-.83,4.73,4.73,0,0,0,.28-2Z"/><path class="b" d="M109.33,19a3.5,3.5,0,0,0-.3-1.62,2.19,2.19,0,0,0-1-.92,5.17,5.17,0,0,0-1-.28q-1.21-.25-1.21-1,0-.93,2.57-1.46l.2,0,1.24-.19.33,0a24.67,24.67,0,0,0,4.06-1.21,16.45,16.45,0,0,1,2.29-.81.89.89,0,0,1,.74.3,1.69,1.69,0,0,1,.24,1q0,.43-.06,1.38t-.06,1.51V42.41a4.45,4.45,0,0,0,.29,1.92,2.06,2.06,0,0,0,1.13.87,1.83,1.83,0,0,0,.48.15,4.76,4.76,0,0,0,.78,0,2.52,2.52,0,0,1,1.25.3,1.1,1.1,0,0,1,0,1.42,1.11,1.11,0,0,1-.78.24l-.76-.05a58,58,0,0,0-5.85-.3q-3.58,0-7,.3l-.68.05a.77.77,0,0,1-.57-.29.92.92,0,0,1-.27-.64.89.89,0,0,1,.28-.73,2.5,2.5,0,0,1,1.23-.3,3.5,3.5,0,0,0,.59,0,2.75,2.75,0,0,0,.54-.15,1.9,1.9,0,0,0,1.05-.83,4.73,4.73,0,0,0,.28-2Z"/><path class="b" d="M127.41,34.2v1.34a9.16,9.16,0,0,0,2.4,6.57,8.55,8.55,0,0,0,10.64,1.21,16,16,0,0,1,2.3-1.32,1,1,0,0,1,.69.25.84.84,0,0,1,.26.63,2.2,2.2,0,0,1-.77,1.28,12.56,12.56,0,0,1-2.1,1.68,15.71,15.71,0,0,1-4.09,1.9,16.13,16.13,0,0,1-4.46.58,13.47,13.47,0,0,1-9.63-3.5,11.8,11.8,0,0,1-3.72-9,11.39,11.39,0,0,1,3.86-9q3.86-3.41,10.14-3.41a12.2,12.2,0,0,1,7.77,2.39,7.25,7.25,0,0,1,3,5.91,1.33,1.33,0,0,1-.52,1.18,3.36,3.36,0,0,1-1.8.35h-13a1.08,1.08,0,0,0-.75.21A1,1,0,0,0,127.41,34.2Zm.48-4.34-.15.88v0a.33.33,0,0,0,.2.29,1.12,1.12,0,0,0,.55.11h3.33a8.46,8.46,0,0,0,3.73-.59,2,2,0,0,0,1.1-1.93,3.18,3.18,0,0,0-1-2.44,3.78,3.78,0,0,0-2.67-1,4.86,4.86,0,0,0-3.37,1.25A5.34,5.34,0,0,0,127.88,29.86Z"/><path class="b" d="M147.65,32.05v-.68a3.3,3.3,0,0,0-.24-1.55,1.73,1.73,0,0,0-.89-.63q-.3-.07-1-.17l-.13,0-.1,0q-1.19-.18-1.18-.87t1.84-1.27l.1,0q1.16-.29,1.86-.52a11.72,11.72,0,0,0,1.36-.55,17.85,17.85,0,0,0,3-1.82,5.61,5.61,0,0,1,2.19-1.2.93.93,0,0,1,.73.23,1.73,1.73,0,0,1,.2,1v2.33a1,1,0,0,0,0,.39.16.16,0,0,0,.15.11.54.54,0,0,0,.25-.06,1.48,1.48,0,0,0,.28-.2l.55-.65a7.63,7.63,0,0,1,2.22-1.61,5.7,5.7,0,0,1,2.44-.56,5,5,0,0,1,3.35,1.1A3.56,3.56,0,0,1,166,27.66a4,4,0,0,1-1.12,2.95,4.45,4.45,0,0,1-4.46.84,3.58,3.58,0,0,1-1.22-.83l-.48-.51q-1.24-1.35-1.79-1.35a1,1,0,0,0-.94.63,5,5,0,0,0-.29,2v11a4.8,4.8,0,0,0,.27,1.92,1.91,1.91,0,0,0,1.07.87,1.81,1.81,0,0,0,.45.15,3.89,3.89,0,0,0,.71,0,2.22,2.22,0,0,1,1.16.3.93.93,0,0,1,.25.73,1.06,1.06,0,0,1-.2.66.63.63,0,0,1-.53.26l-.68-.05Q155,47,151.68,47t-6.36.3l-.75.05a.77.77,0,0,1-.57-.29.93.93,0,0,1-.26-.64.89.89,0,0,1,.28-.73,2.49,2.49,0,0,1,1.23-.3,3.48,3.48,0,0,0,.59,0,2.73,2.73,0,0,0,.54-.15,1.88,1.88,0,0,0,1-.79,4.89,4.89,0,0,0,.26-2Z"/><path class="b" d="M48.73,58.23H47.29V51.31h1.44Z"/><path class="b" d="M57.76,51.31h1.52L62,56.14V51.31h1.35v6.93H61.93l-2.82-4.92v4.92H57.76Z"/><path class="b" d="M77.47,51.31v1.23H75.4v5.7H73.94v-5.7H71.86V51.31Z"/><path class="b" d="M91.14,52.53H87.47V54h3.37v1.2H87.47V57h3.84v1.25H86.06V51.31h5.08Z"/><path class="b" d="M104.58,51.48a1.71,1.71,0,0,1,.65.48,2.16,2.16,0,0,1,.35.58,1.94,1.94,0,0,1,.13.73,2.08,2.08,0,0,1-.25,1,1.39,1.39,0,0,1-.82.67,1.29,1.29,0,0,1,.68.55,2.28,2.28,0,0,1,.2,1.08V57a3.52,3.52,0,0,0,0,.64.58.58,0,0,0,.27.39v.17h-1.6q-.07-.23-.09-.37a3.43,3.43,0,0,1-.06-.6v-.64a1.31,1.31,0,0,0-.23-.88,1.17,1.17,0,0,0-.82-.22h-1.41v2.72h-1.41V51.31h3.31A3,3,0,0,1,104.58,51.48Zm-3,1v1.86h1.56a1.66,1.66,0,0,0,.7-.11.78.78,0,0,0,.41-.78.88.88,0,0,0-.4-.85,1.44,1.44,0,0,0-.67-.12Z"/><path class="b" d="M116.11,58.23h-1.44V51.31h1.44Z"/><path class="b" d="M130.5,57.62a3.59,3.59,0,0,1-4.54,0,3.74,3.74,0,0,1-1.05-2.86A3.66,3.66,0,0,1,126,51.9a3.59,3.59,0,0,1,4.54,0,3.67,3.67,0,0,1,1,2.86A3.75,3.75,0,0,1,130.5,57.62Zm-.9-1.05a3.47,3.47,0,0,0,0-3.61,1.65,1.65,0,0,0-1.37-.64,1.67,1.67,0,0,0-1.37.63,3.44,3.44,0,0,0,0,3.61,1.67,1.67,0,0,0,1.37.63A1.65,1.65,0,0,0,129.59,56.56Z"/><path class="b" d="M144.79,51.48a1.71,1.71,0,0,1,.65.48,2.16,2.16,0,0,1,.35.58,1.94,1.94,0,0,1,.13.73,2.08,2.08,0,0,1-.25,1,1.39,1.39,0,0,1-.82.67,1.29,1.29,0,0,1,.68.55,2.28,2.28,0,0,1,.2,1.08V57a3.52,3.52,0,0,0,0,.64.58.58,0,0,0,.27.39v.17h-1.6q-.07-.23-.09-.37a3.43,3.43,0,0,1-.06-.6v-.64a1.31,1.31,0,0,0-.23-.88,1.17,1.17,0,0,0-.82-.22H141.8v2.72h-1.41V51.31h3.31A3,3,0,0,1,144.79,51.48Zm-3,1v1.86h1.56a1.66,1.66,0,0,0,.7-.11.78.78,0,0,0,.41-.78.88.88,0,0,0-.4-.85,1.44,1.44,0,0,0-.67-.12Z"/><path class="b" d="M156,56.09a1.4,1.4,0,0,0,.26.71,1.54,1.54,0,0,0,1.23.43,2.65,2.65,0,0,0,.85-.11.81.81,0,0,0,.62-.8.59.59,0,0,0-.3-.53,3.29,3.29,0,0,0-1-.32L157,55.3a4.67,4.67,0,0,1-1.52-.53,1.69,1.69,0,0,1-.7-1.5,2,2,0,0,1,.69-1.55,2.92,2.92,0,0,1,2-.62,3.09,3.09,0,0,1,1.89.58,2.06,2.06,0,0,1,.82,1.68h-1.39a1,1,0,0,0-.56-.89,1.91,1.91,0,0,0-.86-.17,1.64,1.64,0,0,0-.92.23.71.71,0,0,0-.34.63.59.59,0,0,0,.34.55,4.19,4.19,0,0,0,.92.29l1.22.29a3.09,3.09,0,0,1,1.2.5,1.69,1.69,0,0,1,.62,1.41,2,2,0,0,1-.73,1.58,3.1,3.1,0,0,1-2.07.63,3.39,3.39,0,0,1-2.15-.62,2,2,0,0,1-.78-1.7Z"/></svg>